<mxfile host="app.diagrams.net" modified="2024-01-04T07:07:15.304Z" agent="Mozilla/5.0 (Macintosh; Intel Mac OS X 10_15_7) AppleWebKit/537.36 (KHTML, like Gecko) Chrome/120.0.0.0 Safari/537.36" etag="HdlO5dMG4Q6Sy6FCgSLS" version="22.1.16" type="github">
  <diagram name="Page-1" id="12e1b939-464a-85fe-373e-61e167be1490">
    <mxGraphModel dx="1079" dy="714" grid="1" gridSize="10" guides="1" tooltips="1" connect="1" arrows="1" fold="1" page="1" pageScale="1.5" pageWidth="1169" pageHeight="826" background="none" math="0" shadow="0">
      <root>
        <mxCell id="0" />
        <mxCell id="1" parent="0" />
        <mxCell id="3ZXkjY_nbE6o7iCO6559-40" value="" style="edgeStyle=orthogonalEdgeStyle;rounded=0;orthogonalLoop=1;jettySize=auto;html=1;" edge="1" parent="1" source="3ZXkjY_nbE6o7iCO6559-17" target="3ZXkjY_nbE6o7iCO6559-39">
          <mxGeometry relative="1" as="geometry" />
        </mxCell>
        <mxCell id="3ZXkjY_nbE6o7iCO6559-17" value="" style="rounded=0;whiteSpace=wrap;html=1;labelBackgroundColor=none;labelBorderColor=#FF250D;strokeColor=#f9011a;" vertex="1" parent="1">
          <mxGeometry x="480" y="460" width="640" height="520" as="geometry" />
        </mxCell>
        <mxCell id="3ZXkjY_nbE6o7iCO6559-3" value="" style="edgeStyle=orthogonalEdgeStyle;rounded=0;orthogonalLoop=1;jettySize=auto;html=1;" edge="1" parent="1" source="3ZXkjY_nbE6o7iCO6559-1" target="3ZXkjY_nbE6o7iCO6559-2">
          <mxGeometry relative="1" as="geometry" />
        </mxCell>
        <mxCell id="3ZXkjY_nbE6o7iCO6559-1" value="脚本执行" style="rounded=0;whiteSpace=wrap;html=1;" vertex="1" parent="1">
          <mxGeometry x="690" y="70" width="120" height="60" as="geometry" />
        </mxCell>
        <mxCell id="3ZXkjY_nbE6o7iCO6559-7" value="" style="edgeStyle=orthogonalEdgeStyle;rounded=0;orthogonalLoop=1;jettySize=auto;html=1;" edge="1" parent="1" source="3ZXkjY_nbE6o7iCO6559-2" target="3ZXkjY_nbE6o7iCO6559-13">
          <mxGeometry relative="1" as="geometry">
            <mxPoint x="750" y="260" as="targetPoint" />
          </mxGeometry>
        </mxCell>
        <mxCell id="3ZXkjY_nbE6o7iCO6559-2" value="根据配置文件获取备份检查excel的数据" style="rounded=0;whiteSpace=wrap;html=1;" vertex="1" parent="1">
          <mxGeometry x="690" y="160" width="120" height="60" as="geometry" />
        </mxCell>
        <mxCell id="3ZXkjY_nbE6o7iCO6559-16" value="" style="edgeStyle=orthogonalEdgeStyle;rounded=0;orthogonalLoop=1;jettySize=auto;html=1;" edge="1" parent="1" source="3ZXkjY_nbE6o7iCO6559-4" target="3ZXkjY_nbE6o7iCO6559-15">
          <mxGeometry relative="1" as="geometry" />
        </mxCell>
        <mxCell id="3ZXkjY_nbE6o7iCO6559-4" value="读取本地存储的进行中备份的数据" style="rounded=0;whiteSpace=wrap;html=1;" vertex="1" parent="1">
          <mxGeometry x="690" y="380" width="120" height="60" as="geometry" />
        </mxCell>
        <mxCell id="3ZXkjY_nbE6o7iCO6559-14" value="" style="edgeStyle=orthogonalEdgeStyle;rounded=0;orthogonalLoop=1;jettySize=auto;html=1;" edge="1" parent="1" source="3ZXkjY_nbE6o7iCO6559-13" target="3ZXkjY_nbE6o7iCO6559-4">
          <mxGeometry relative="1" as="geometry" />
        </mxCell>
        <mxCell id="3ZXkjY_nbE6o7iCO6559-13" value="筛选数据为进行中的数据" style="rounded=0;whiteSpace=wrap;html=1;" vertex="1" parent="1">
          <mxGeometry x="690" y="270" width="120" height="60" as="geometry" />
        </mxCell>
        <mxCell id="3ZXkjY_nbE6o7iCO6559-23" value="" style="edgeStyle=orthogonalEdgeStyle;rounded=0;orthogonalLoop=1;jettySize=auto;html=1;" edge="1" parent="1" source="3ZXkjY_nbE6o7iCO6559-15" target="3ZXkjY_nbE6o7iCO6559-22">
          <mxGeometry relative="1" as="geometry" />
        </mxCell>
        <mxCell id="3ZXkjY_nbE6o7iCO6559-15" value="根据文件系统id获取远端数据" style="rounded=0;whiteSpace=wrap;html=1;" vertex="1" parent="1">
          <mxGeometry x="690" y="530" width="120" height="60" as="geometry" />
        </mxCell>
        <mxCell id="3ZXkjY_nbE6o7iCO6559-19" value="循环判断逻辑" style="rounded=1;whiteSpace=wrap;html=1;fillColor=#f8cecc;strokeColor=#b85450;" vertex="1" parent="1">
          <mxGeometry x="840" y="500" width="120" height="60" as="geometry" />
        </mxCell>
        <mxCell id="3ZXkjY_nbE6o7iCO6559-25" value="" style="edgeStyle=orthogonalEdgeStyle;rounded=0;orthogonalLoop=1;jettySize=auto;html=1;" edge="1" parent="1" source="3ZXkjY_nbE6o7iCO6559-22" target="3ZXkjY_nbE6o7iCO6559-24">
          <mxGeometry relative="1" as="geometry" />
        </mxCell>
        <mxCell id="3ZXkjY_nbE6o7iCO6559-26" value="running" style="edgeLabel;html=1;align=center;verticalAlign=middle;resizable=0;points=[];" vertex="1" connectable="0" parent="3ZXkjY_nbE6o7iCO6559-25">
          <mxGeometry x="-0.0333" y="-1" relative="1" as="geometry">
            <mxPoint as="offset" />
          </mxGeometry>
        </mxCell>
        <mxCell id="3ZXkjY_nbE6o7iCO6559-29" style="edgeStyle=orthogonalEdgeStyle;rounded=0;orthogonalLoop=1;jettySize=auto;html=1;entryX=0;entryY=0.5;entryDx=0;entryDy=0;" edge="1" parent="1" source="3ZXkjY_nbE6o7iCO6559-22" target="3ZXkjY_nbE6o7iCO6559-27">
          <mxGeometry relative="1" as="geometry">
            <Array as="points">
              <mxPoint x="750" y="780" />
            </Array>
          </mxGeometry>
        </mxCell>
        <mxCell id="3ZXkjY_nbE6o7iCO6559-30" value="complete" style="edgeLabel;html=1;align=center;verticalAlign=middle;resizable=0;points=[];" vertex="1" connectable="0" parent="3ZXkjY_nbE6o7iCO6559-29">
          <mxGeometry x="0.4118" relative="1" as="geometry">
            <mxPoint as="offset" />
          </mxGeometry>
        </mxCell>
        <mxCell id="3ZXkjY_nbE6o7iCO6559-32" style="edgeStyle=orthogonalEdgeStyle;rounded=0;orthogonalLoop=1;jettySize=auto;html=1;entryX=0;entryY=0.5;entryDx=0;entryDy=0;" edge="1" parent="1" source="3ZXkjY_nbE6o7iCO6559-22" target="3ZXkjY_nbE6o7iCO6559-31">
          <mxGeometry relative="1" as="geometry">
            <Array as="points">
              <mxPoint x="750" y="880" />
            </Array>
          </mxGeometry>
        </mxCell>
        <mxCell id="3ZXkjY_nbE6o7iCO6559-33" value="其他" style="edgeLabel;html=1;align=center;verticalAlign=middle;resizable=0;points=[];" vertex="1" connectable="0" parent="3ZXkjY_nbE6o7iCO6559-32">
          <mxGeometry x="0.5481" y="-1" relative="1" as="geometry">
            <mxPoint as="offset" />
          </mxGeometry>
        </mxCell>
        <mxCell id="3ZXkjY_nbE6o7iCO6559-22" value="状态值判断" style="strokeWidth=2;html=1;shape=mxgraph.flowchart.decision;whiteSpace=wrap;" vertex="1" parent="1">
          <mxGeometry x="700" y="620" width="100" height="100" as="geometry" />
        </mxCell>
        <mxCell id="3ZXkjY_nbE6o7iCO6559-36" style="edgeStyle=orthogonalEdgeStyle;rounded=0;orthogonalLoop=1;jettySize=auto;html=1;entryX=0;entryY=0.5;entryDx=0;entryDy=0;" edge="1" parent="1" source="3ZXkjY_nbE6o7iCO6559-24" target="3ZXkjY_nbE6o7iCO6559-34">
          <mxGeometry relative="1" as="geometry" />
        </mxCell>
        <mxCell id="3ZXkjY_nbE6o7iCO6559-24" value="进行中数量+1" style="rounded=0;whiteSpace=wrap;html=1;" vertex="1" parent="1">
          <mxGeometry x="860" y="640" width="120" height="60" as="geometry" />
        </mxCell>
        <mxCell id="3ZXkjY_nbE6o7iCO6559-37" style="edgeStyle=orthogonalEdgeStyle;rounded=0;orthogonalLoop=1;jettySize=auto;html=1;" edge="1" parent="1" source="3ZXkjY_nbE6o7iCO6559-27" target="3ZXkjY_nbE6o7iCO6559-34">
          <mxGeometry relative="1" as="geometry" />
        </mxCell>
        <mxCell id="3ZXkjY_nbE6o7iCO6559-27" value="已完成数量+1" style="rounded=0;whiteSpace=wrap;html=1;" vertex="1" parent="1">
          <mxGeometry x="860" y="750" width="120" height="60" as="geometry" />
        </mxCell>
        <mxCell id="3ZXkjY_nbE6o7iCO6559-38" style="edgeStyle=orthogonalEdgeStyle;rounded=0;orthogonalLoop=1;jettySize=auto;html=1;entryX=0;entryY=0.5;entryDx=0;entryDy=0;" edge="1" parent="1" source="3ZXkjY_nbE6o7iCO6559-31" target="3ZXkjY_nbE6o7iCO6559-34">
          <mxGeometry relative="1" as="geometry" />
        </mxCell>
        <mxCell id="3ZXkjY_nbE6o7iCO6559-31" value="备份异常数量+1" style="rounded=0;whiteSpace=wrap;html=1;" vertex="1" parent="1">
          <mxGeometry x="860" y="850" width="120" height="60" as="geometry" />
        </mxCell>
        <mxCell id="3ZXkjY_nbE6o7iCO6559-34" value="写入附件" style="rounded=0;whiteSpace=wrap;html=1;" vertex="1" parent="1">
          <mxGeometry x="1190" y="575" width="30" height="410" as="geometry" />
        </mxCell>
        <mxCell id="3ZXkjY_nbE6o7iCO6559-39" value="&lt;div style=&quot;text-align: left;&quot;&gt;1.统计【备份检查实例总数，备份异常。备份未完成，备份完成数】数据添加到汇总sheet中&lt;/div&gt;&lt;div style=&quot;text-align: left;&quot;&gt;&lt;span style=&quot;background-color: initial;&quot;&gt;2.备份缺失，备份未完成，添加到邮件正文&lt;/span&gt;&lt;/div&gt;&lt;div style=&quot;text-align: left;&quot;&gt;3.各项数据汇总至对应的附件sheet中【备份情况汇总表，快照完成，快照缺失，快照未完成，特殊策略】&lt;/div&gt;&lt;div style=&quot;text-align: left;&quot;&gt;4.添加邮件附件，发送邮件给配置文件中配置的收件人&lt;/div&gt;&lt;div&gt;&lt;br&gt;&lt;/div&gt;" style="rounded=0;whiteSpace=wrap;html=1;" vertex="1" parent="1">
          <mxGeometry x="510" y="1030" width="580" height="90" as="geometry" />
        </mxCell>
      </root>
    </mxGraphModel>
  </diagram>
</mxfile>
